<svg width="32" height="32" viewBox="0 0 32 32" fill="none" xmlns="http://www.w3.org/2000/svg">
<path d="M20.7074 11.2925C20.8003 11.3854 20.8741 11.4957 20.9244 11.6171C20.9748 11.7385 21.0007 11.8686 21.0007 12C21.0007 12.1314 20.9748 12.2616 20.9244 12.383C20.8741 12.5044 20.8003 12.6146 20.7074 12.7075L12.7074 20.7075C12.6145 20.8004 12.5042 20.8741 12.3828 20.9244C12.2614 20.9747 12.1313 21.0006 11.9999 21.0006C11.8685 21.0006 11.7384 20.9747 11.617 20.9244C11.4956 20.8741 11.3853 20.8004 11.2924 20.7075C11.1995 20.6146 11.1258 20.5043 11.0755 20.3829C11.0252 20.2615 10.9993 20.1314 10.9993 20C10.9993 19.8686 11.0252 19.7385 11.0755 19.6171C11.1258 19.4957 11.1995 19.3854 11.2924 19.2925L19.2924 11.2925C19.3852 11.1995 19.4955 11.1258 19.6169 11.0755C19.7383 11.0251 19.8685 10.9992 19.9999 10.9992C20.1313 10.9992 20.2614 11.0251 20.3828 11.0755C20.5042 11.1258 20.6145 11.1995 20.7074 11.2925ZM26.9499 5.05002C26.2999 4.39993 25.5281 3.88425 24.6788 3.53242C23.8295 3.1806 22.9192 2.99951 21.9999 2.99951C21.0806 2.99951 20.1702 3.1806 19.3209 3.53242C18.4716 3.88425 17.6999 4.39993 17.0499 5.05002L13.2924 8.80627C13.1047 8.99391 12.9993 9.2484 12.9993 9.51377C12.9993 9.77913 13.1047 10.0336 13.2924 10.2213C13.48 10.4089 13.7345 10.5143 13.9999 10.5143C14.2652 10.5143 14.5197 10.4089 14.7074 10.2213L18.4649 6.47127C19.406 5.55083 20.6721 5.03866 21.9885 5.04591C23.3048 5.05316 24.5652 5.57924 25.4962 6.50999C26.4271 7.44074 26.9534 8.70105 26.9608 10.0174C26.9683 11.3338 26.4564 12.6 25.5361 13.5413L21.7774 17.2988C21.5897 17.4862 21.4842 17.7406 21.4841 18.0058C21.484 18.2711 21.5893 18.5255 21.7767 18.7131C21.9642 18.9008 22.2186 19.0063 22.4838 19.0064C22.749 19.0065 23.0035 18.9012 23.1911 18.7138L26.9499 14.95C27.6 14.3 28.1156 13.5283 28.4675 12.679C28.8193 11.8296 29.0004 10.9193 29.0004 10C29.0004 9.0807 28.8193 8.17039 28.4675 7.32107C28.1156 6.47174 27.6 5.70004 26.9499 5.05002ZM17.2924 21.7775L13.5349 25.535C13.0725 26.0078 12.5209 26.3842 11.912 26.6423C11.3032 26.9004 10.6491 27.0352 9.98784 27.0389C9.32653 27.0425 8.67107 26.9149 8.05941 26.6635C7.44774 26.4121 6.89203 26.0418 6.42445 25.5742C5.95687 25.1065 5.58671 24.5507 5.3354 23.939C5.08409 23.3273 4.95662 22.6718 4.96038 22.0105C4.96414 21.3492 5.09905 20.6952 5.3573 20.0864C5.61555 19.4776 5.992 18.9261 6.46487 18.4638L10.2211 14.7075C10.4088 14.5199 10.5142 14.2654 10.5142 14C10.5142 13.7347 10.4088 13.4802 10.2211 13.2925C10.0335 13.1049 9.77898 12.9995 9.51362 12.9995C9.24825 12.9995 8.99376 13.1049 8.80612 13.2925L5.04987 17.05C3.73705 18.3628 2.99951 20.1434 2.99951 22C2.99951 23.8566 3.73705 25.6372 5.04987 26.95C6.36269 28.2628 8.14326 29.0004 9.99987 29.0004C11.8565 29.0004 13.637 28.2628 14.9499 26.95L18.7074 23.1913C18.8948 23.0036 19.0001 22.7492 19 22.4839C18.9999 22.2187 18.8944 21.9644 18.7067 21.7769C18.5191 21.5894 18.2647 21.4842 17.9994 21.4843C17.7342 21.4844 17.4798 21.5899 17.2924 21.7775Z" fill="#343330"/>
</svg>
