<svg width="32" height="32" viewBox="0 0 32 32" fill="none" xmlns="http://www.w3.org/2000/svg">
<path d="M28.0001 16C28.0001 16.2652 27.8947 16.5196 27.7072 16.7071C27.5196 16.8946 27.2653 17 27.0001 17H13.0001C12.7348 17 12.4805 16.8946 12.2929 16.7071C12.1054 16.5196 12.0001 16.2652 12.0001 16C12.0001 15.7348 12.1054 15.4804 12.2929 15.2929C12.4805 15.1053 12.7348 15 13.0001 15H27.0001C27.2653 15 27.5196 15.1053 27.7072 15.2929C27.8947 15.4804 28.0001 15.7348 28.0001 16ZM13.0001 8.99998H27.0001C27.2653 8.99998 27.5196 8.89463 27.7072 8.70709C27.8947 8.51955 28.0001 8.2652 28.0001 7.99998C28.0001 7.73477 27.8947 7.48041 27.7072 7.29288C27.5196 7.10534 27.2653 6.99998 27.0001 6.99998H13.0001C12.7348 6.99998 12.4805 7.10534 12.2929 7.29288C12.1054 7.48041 12.0001 7.73477 12.0001 7.99998C12.0001 8.2652 12.1054 8.51955 12.2929 8.70709C12.4805 8.89463 12.7348 8.99998 13.0001 8.99998ZM27.0001 23H13.0001C12.7348 23 12.4805 23.1053 12.2929 23.2929C12.1054 23.4804 12.0001 23.7348 12.0001 24C12.0001 24.2652 12.1054 24.5196 12.2929 24.7071C12.4805 24.8946 12.7348 25 13.0001 25H27.0001C27.2653 25 27.5196 24.8946 27.7072 24.7071C27.8947 24.5196 28.0001 24.2652 28.0001 24C28.0001 23.7348 27.8947 23.4804 27.7072 23.2929C27.5196 23.1053 27.2653 23 27.0001 23ZM5.44756 6.89498L6.00006 6.61748V13C6.00006 13.2652 6.10541 13.5196 6.29295 13.7071C6.48049 13.8946 6.73484 14 7.00006 14C7.26527 14 7.51963 13.8946 7.70716 13.7071C7.8947 13.5196 8.00006 13.2652 8.00006 13V4.99998C8.00018 4.82944 7.95668 4.6617 7.8737 4.5127C7.79072 4.36371 7.67101 4.23841 7.52596 4.14872C7.3809 4.05903 7.21532 4.00793 7.04494 4.00028C6.87457 3.99262 6.70507 4.02867 6.55256 4.10498L4.55256 5.10498C4.31519 5.22367 4.13469 5.43179 4.05076 5.68355C4.00921 5.80822 3.99262 5.93984 4.00193 6.07092C4.01125 6.20199 4.04629 6.32995 4.10506 6.44748C4.16382 6.56502 4.24516 6.66982 4.34443 6.75592C4.44371 6.84202 4.55896 6.90772 4.68363 6.94927C4.93539 7.0332 5.21019 7.01367 5.44756 6.89498ZM9.97131 19.59C9.91601 19.1939 9.7812 18.8131 9.57498 18.4705C9.36876 18.1279 9.09539 17.8305 8.77131 17.5962C8.12219 17.1249 7.31594 16.9228 6.52125 17.0323C5.72656 17.1418 5.00501 17.5544 4.50756 18.1837C4.31743 18.4279 4.16684 18.7004 4.06131 18.9912C4.0062 19.1164 3.97736 19.2516 3.97658 19.3884C3.9758 19.5252 4.00309 19.6607 4.05676 19.7865C4.11044 19.9123 4.18936 20.0258 4.28864 20.1199C4.38792 20.214 4.50545 20.2867 4.63396 20.3336C4.76248 20.3805 4.89924 20.4005 5.03579 20.3923C5.17234 20.3842 5.30578 20.3482 5.42785 20.2865C5.54992 20.2248 5.65802 20.1386 5.74548 20.0335C5.83294 19.9283 5.89788 19.8063 5.93631 19.675C5.97131 19.5791 6.02107 19.4893 6.08381 19.4087C6.26021 19.1889 6.51457 19.0456 6.79396 19.0086C7.07334 18.9716 7.35625 19.0437 7.58381 19.21C7.69327 19.2874 7.78584 19.3863 7.85589 19.5006C7.92595 19.6149 7.97202 19.7423 7.99131 19.875C8.00895 20.0024 8.00066 20.1321 7.96693 20.2563C7.93321 20.3804 7.87475 20.4965 7.79506 20.5975C7.79141 20.6018 7.78807 20.6064 7.78506 20.6112L4.19881 25.4012C4.08767 25.5499 4.02011 25.7265 4.00367 25.9114C3.98723 26.0963 4.02257 26.2821 4.10573 26.448C4.1889 26.614 4.3166 26.7535 4.47454 26.851C4.63249 26.9484 4.81445 27 5.00006 27H9.00006C9.26527 27 9.51963 26.8946 9.70716 26.7071C9.8947 26.5196 10.0001 26.2652 10.0001 26C10.0001 25.7348 9.8947 25.4804 9.70716 25.2929C9.51963 25.1053 9.26527 25 9.00006 25H7.00006L9.38506 21.8087C9.62686 21.4973 9.8034 21.1403 9.90413 20.7591C10.0049 20.3778 10.0277 19.9802 9.97131 19.59Z" fill="#343330"/>
</svg>
