<svg width="32" height="32" viewBox="0 0 32 32" fill="none" xmlns="http://www.w3.org/2000/svg">
<path d="M26.2075 15.2925C26.3005 15.3854 26.3743 15.4957 26.4246 15.6171C26.4749 15.7385 26.5008 15.8686 26.5008 16C26.5008 16.1314 26.4749 16.2616 26.4246 16.383C26.3743 16.5044 26.3005 16.6146 26.2075 16.7075L15.9513 26.9575C14.6383 28.2703 12.8576 29.0078 11.0008 29.0077C9.14412 29.0076 7.36348 28.2699 6.05066 26.9569C4.73784 25.6439 4.00037 23.8632 4.00049 22.0065C4.00061 20.1497 4.7383 18.3691 6.05129 17.0563L18.4588 4.46627C19.3962 3.5279 20.6679 3.00034 21.9943 2.99963C23.3206 2.99893 24.5929 3.52515 25.5313 4.46252C26.4697 5.3999 26.9972 6.67164 26.9979 7.998C26.9986 9.32435 26.4724 10.5967 25.535 11.535L13.125 24.125C12.5615 24.6886 11.7971 25.0052 11 25.0052C10.203 25.0052 9.43862 24.6886 8.87504 24.125C8.31145 23.5614 7.99483 22.7971 7.99483 22C7.99483 21.203 8.31145 20.4386 8.87504 19.875L19.2875 9.29752C19.3787 9.20022 19.4885 9.12215 19.6103 9.06789C19.7322 9.01364 19.8636 8.98431 19.997 8.98163C20.1303 8.97895 20.2629 9.00296 20.3868 9.05227C20.5107 9.10157 20.6235 9.17516 20.7186 9.26872C20.8136 9.36227 20.889 9.47389 20.9403 9.59702C20.9915 9.72014 21.0177 9.85227 21.0171 9.98564C21.0165 10.119 20.9893 10.2509 20.937 10.3736C20.8847 10.4963 20.8084 10.6073 20.7125 10.7L10.2988 21.2888C10.2055 21.3813 10.1314 21.4912 10.0807 21.6124C10.03 21.7335 10.0036 21.8635 10.003 21.9948C10.0025 22.1261 10.0279 22.2563 10.0777 22.3778C10.1274 22.4994 10.2007 22.6099 10.2932 22.7031C10.3857 22.7964 10.4956 22.8705 10.6168 22.9212C10.7379 22.972 10.8678 22.9984 10.9992 22.9989C11.1305 22.9994 11.2607 22.9741 11.3822 22.9243C11.5038 22.8745 11.6143 22.8013 11.7075 22.7088L24.1163 10.125C24.6799 9.5626 24.997 8.79932 24.9978 8.00312C24.9986 7.20691 24.6831 6.44298 24.1207 5.8794C23.5582 5.31581 22.795 4.99873 21.9988 4.99791C21.2025 4.99709 20.4386 5.3126 19.875 5.87502L7.47004 18.46C7.00532 18.924 6.63654 19.475 6.38476 20.0815C6.13297 20.688 6.00311 21.3381 6.00259 21.9948C6.00207 22.6515 6.1309 23.3018 6.38171 23.9087C6.63253 24.5156 7.00044 25.0672 7.46441 25.5319C7.92839 25.9966 8.47935 26.3654 9.08585 26.6172C9.69235 26.869 10.3425 26.9988 10.9992 26.9993C11.6559 26.9999 12.3062 26.871 12.9131 26.6202C13.52 26.3694 14.0716 26.0015 14.5363 25.5375L24.7938 15.2875C24.982 15.1008 25.2366 14.9964 25.5017 14.9974C25.7668 14.9983 26.0207 15.1045 26.2075 15.2925Z" fill="#343330"/>
</svg>
