<svg width="32" height="32" viewBox="0 0 32 32" fill="none" xmlns="http://www.w3.org/2000/svg">
<path d="M22.31 14.4625C23.0999 13.7022 23.6445 12.7231 23.8739 11.651C24.1034 10.5789 24.0072 9.46275 23.5977 8.44573C23.1882 7.42872 22.4841 6.55729 21.5758 5.94332C20.6675 5.32934 19.5964 5.00085 18.5 5H10C9.73478 5 9.48043 5.10536 9.29289 5.29289C9.10536 5.48043 9 5.73478 9 6V25C9 25.2652 9.10536 25.5196 9.29289 25.7071C9.48043 25.8946 9.73478 26 10 26H20C21.3868 26 22.7309 25.5196 23.8035 24.6404C24.876 23.7613 25.611 22.5378 25.8832 21.1779C26.1555 19.8181 25.9483 18.4059 25.2968 17.1816C24.6454 15.9573 23.5899 14.9964 22.31 14.4625ZM11 7H18.5C19.4283 7 20.3185 7.36875 20.9749 8.02513C21.6313 8.6815 22 9.57174 22 10.5C22 11.4283 21.6313 12.3185 20.9749 12.9749C20.3185 13.6313 19.4283 14 18.5 14H11V7ZM20 24H11V16H20C21.0609 16 22.0783 16.4214 22.8284 17.1716C23.5786 17.9217 24 18.9391 24 20C24 21.0609 23.5786 22.0783 22.8284 22.8284C22.0783 23.5786 21.0609 24 20 24Z" fill="#343330"/>
</svg>
